<svg viewBox="0 0 24 24" width="24" height="24" xmlns="http://www.w3.org/2000/svg">
  <style id="current-color-scheme" type="text/css">
    .ColorScheme-Text {
      color: #232629;
    }
  </style>
  <path class="ColorScheme-Text" fill="currentColor" d="M19.54034 2.89966c-.15392-.15391-.33694-.233-.54498-.233H4.99239c-.21212 0-.39116.07909-.54499.233-.15391.15392-.23299.33278-.23299.54498v9.33537c0 .69474.13729 1.38948.4077 2.07175.27041.68642.60734 1.29385 1.01088 1.8222.39938.53251.87784 1.0483 1.4353 1.54764.55321.50332 1.06909.91933 1.53924 1.2521.47006.33287.96099.64486 1.47271.94022.51164.29535.8736.49509 1.08996.60327.21637.10394.38691.18717.51588.24122.09563.04998.2038.07492.31615.07492.11234 0 .22052-.02494.31614-.07492.12897-.0582.30376-.13728.51588-.24122.21637-.10403.57824-.30792 1.08997-.60327.51163-.29536 1.00257-.6115 1.47271-.94013.47006-.33286.98178-.74887 1.53924-1.25227.5533-.50341 1.03176-1.0192 1.4353-1.54764.39938-.53243.73631-1.13986 1.00672-1.82212.27041-.68643.4077-1.377.4077-2.07175V3.44473c-.01247-.21212-.09155-.39107-.24547-.54498zm-1.8054 9.96775c0 3.37807-5.74103 6.29015-5.74103 6.29015V4.66358h5.74102z" />
</svg>
